HIERARCHY
ROOT root
{
	OFFSET 0.000000 0.000000 0.000000
	CHANNELS 6 Xposition Yposition Zposition Zrotation Yrotation Xrotation
	JOINT lhip
	{
		OFFSET 0.058581 -0.082280 -0.017664
		CHANNELS 3 Zrotation Yrotation Xrotation
		JOINT lknee
		{
			OFFSET 0.043451 -0.386469 0.008037
			CHANNELS 3 Zrotation Yrotation Xrotation
			JOINT lankle
			{
				OFFSET -0.014790 -0.426874 -0.037428
				CHANNELS 3 Zrotation Yrotation Xrotation
				JOINT ltoe
				{
					OFFSET 0.041054 -0.060286 0.122042
					CHANNELS 3 Zrotation Yrotation Xrotation
					End Site
					{
						OFFSET 0.000000 0.000000 0.000000
					}
				}
			}
		}
	}
	JOINT rhip
	{
		OFFSET -0.060310 -0.090513 -0.013543
		CHANNELS 3 Zrotation Yrotation Xrotation
		JOINT rknee
		{
			OFFSET -0.043257 -0.383688 -0.004843
			CHANNELS 3 Zrotation Yrotation Xrotation
			JOINT rankle
			{
				OFFSET 0.019056 -0.420046 -0.034562
				CHANNELS 3 Zrotation Yrotation Xrotation
				JOINT rtoe
				{
					OFFSET -0.034840 -0.062106 0.130323
					CHANNELS 3 Zrotation Yrotation Xrotation
					End Site
					{
						OFFSET 0.000000 0.000000 0.000000
					}
				}
			}
		}
	}
	JOINT lowerback
	{
		OFFSET 0.004439 0.124404 -0.038385
		CHANNELS 3 Zrotation Yrotation Xrotation
		JOINT upperback
		{
			OFFSET 0.004488 0.137956 0.026820
			CHANNELS 3 Zrotation Yrotation Xrotation
			JOINT chest
			{
				OFFSET -0.002265 0.056032 0.002855
				CHANNELS 3 Zrotation Yrotation Xrotation
				JOINT lowerneck
				{
					OFFSET -0.013390 0.211636 -0.033468
					CHANNELS 3 Zrotation Yrotation Xrotation
					JOINT upperneck
					{
						OFFSET 0.010113 0.088937 0.050410
						CHANNELS 3 Zrotation Yrotation Xrotation
						End Site
						{
							OFFSET 0.000000 0.000000 0.000000
						}
					}
				}
				JOINT lclavicle
				{
					OFFSET 0.071702 0.114000 -0.018898
					CHANNELS 3 Zrotation Yrotation Xrotation
					JOINT lshoulder
					{
						OFFSET 0.122921 0.045205 -0.019046
						CHANNELS 3 Zrotation Yrotation Xrotation
						JOINT lelbow
						{
							OFFSET 0.255332 -0.015649 -0.022946
							CHANNELS 3 Zrotation Yrotation Xrotation
							JOINT lwrist
							{
								OFFSET 0.265709 0.012698 -0.007375
								CHANNELS 3 Zrotation Yrotation Xrotation
								End Site
								{
									OFFSET 0.000000 0.000000 0.000000
								}
							}
						}
					}
				}
				JOINT rclavicle
				{
					OFFSET -0.082954 0.112472 -0.023707
					CHANNELS 3 Zrotation Yrotation Xrotation
					JOINT rshoulder
					{
						OFFSET -0.113228 0.046853 -0.008472
						CHANNELS 3 Zrotation Yrotation Xrotation
						JOINT relbow
						{
							OFFSET -0.260127 -0.014369 -0.031269
							CHANNELS 3 Zrotation Yrotation Xrotation
							JOINT rwrist
							{
								OFFSET -0.269108 0.006794 -0.006027
								CHANNELS 3 Zrotation Yrotation Xrotation
								End Site
								{
									OFFSET 0.000000 0.000000 0.000000
								}
							}
						}
					}
				}
			}
		}
	}
}
MOTION
Frames: 8
Frame Time: 0.033333
0.803620 0.257075 0.972971 84.049240 -0.345543 84.525682 2.189225 0.424272 -17.919330 -0.977473 -2.549376 3.648529 0.189522 11.209250 -8.583692 0.000000 -0.000000 0.000000 0.023886 -5.103899 14.485819 2.420739 11.382611 14.426242 1.105237 -5.846285 -18.993683 0.000000 -0.000000 0.000000 2.720216 6.168582 12.610096 -0.015573 1.064631 -0.772203 -0.949506 2.330730 2.219183 2.899170 4.211672 -8.202789 -5.162557 -3.143165 10.581176 -32.300350 5.862036 -2.238714 -52.149749 2.078008 12.010186 -1.448912 -26.557272 18.327994 -3.679292 0.751232 4.058781 29.920904 2.130268 -1.064929 44.632222 11.155989 11.783584 -11.507934 28.908829 -8.368625 3.077229 1.890152 -2.671971 
0.844361 0.261149 0.966982 83.350289 -0.405783 84.703159 2.226977 -0.200836 -17.981765 -1.260485 -1.496224 2.197808 -0.129908 11.322957 -10.117340 0.000000 -0.000000 0.000000 -0.968668 -5.056141 15.728144 2.594998 12.469105 16.571112 2.276844 -5.192091 -19.108369 0.000000 -0.000000 0.000000 2.676973 6.908861 12.340369 0.129187 0.995058 -0.674319 -0.946113 2.572011 2.108425 2.995600 4.235701 -8.051428 -5.337971 -3.077982 10.694922 -32.359826 5.670539 -2.024848 -52.612636 2.652804 12.226860 -1.654271 -26.165941 18.574525 -4.020178 0.603118 3.993097 29.836307 2.555574 -0.738175 44.118599 11.773102 11.471330 -11.966273 28.886777 -9.081807 3.136057 2.147359 -2.244037 
0.887466 0.266455 0.962038 83.244223 -0.809068 84.693956 1.463387 -1.778893 -18.836310 -2.013274 -1.731767 7.957329 0.776973 11.914211 -9.152763 0.000000 -0.000000 0.000000 -1.833716 -4.361431 16.624113 2.615729 12.756203 19.933575 3.035240 -4.803531 -18.183188 0.000000 -0.000000 0.000000 2.335229 7.280465 12.039716 0.235053 0.968042 -0.528882 -1.105334 2.537257 2.087430 3.222879 3.834889 -8.061002 -5.395401 -2.842510 10.690097 -32.476620 5.882437 -2.072247 -52.395136 2.887994 12.420720 -2.202235 -26.524894 19.116452 -4.903425 0.746079 3.726593 30.202545 2.447080 -1.002484 43.689646 11.838120 11.688834 -12.134706 28.684119 -9.233974 3.654233 2.066956 -2.100573 
0.932769 0.271113 0.958724 83.200187 -1.042703 84.628947 0.775941 -3.428941 -19.016002 -2.680507 -2.271801 12.800386 1.656010 11.372318 -5.218519 0.000000 -0.000000 0.000000 -2.205658 -3.729469 16.478666 2.648868 12.503932 24.950711 4.122376 -4.449064 -15.058532 0.000000 -0.000000 0.000000 1.851678 7.727479 11.557448 0.557978 0.900433 -0.482993 -1.128938 2.476031 2.122152 3.476645 3.545704 -8.120119 -5.310429 -2.306928 11.037350 -32.549824 6.006475 -1.973036 -52.047059 3.017730 12.761124 -2.510693 -26.875892 19.221686 -5.483313 0.803049 3.720939 30.890058 2.011776 -1.107934 43.365530 11.583896 12.002040 -12.895851 28.708838 -10.330764 4.040749 2.167681 -1.891961 
0.980569 0.277673 0.959680 83.890969 -1.578765 84.241434 -0.623672 -4.371192 -18.619590 -3.266601 -3.669891 16.963180 2.921301 10.620054 -2.495988 0.000000 -0.000000 0.000000 -3.141733 -3.739258 14.940996 2.654313 11.041508 31.916757 5.772120 -3.172880 -7.180330 0.000000 -0.000000 0.000000 1.196226 7.595203 10.951140 0.750723 0.802159 -0.220288 -1.130638 2.323973 1.971246 3.382361 2.396354 -7.064096 -4.917436 -1.734105 10.968204 -32.453524 6.286211 -1.978742 -51.895277 2.807375 12.719123 -2.388506 -26.192667 18.925339 -6.131780 1.175285 4.323210 31.481559 1.307063 -1.001316 43.787260 10.860737 12.163700 -13.799647 28.136275 -11.594051 4.534126 2.119155 -1.552926 
1.027165 0.283896 0.962297 84.158851 -2.111293 84.065911 -1.685754 -5.677473 -17.209013 -4.601253 -3.136417 20.343467 6.956830 12.674720 -4.065963 0.000000 -0.000000 0.000000 -3.829064 -3.096042 11.275985 3.819640 10.351598 40.946826 6.602230 -3.553503 3.481537 0.000000 -0.000000 0.000000 0.601836 7.423402 10.051513 1.012185 1.049143 -0.042603 -1.299021 1.960648 2.094556 3.229084 1.137456 -5.970104 -4.524630 -0.549127 10.439006 -32.022387 6.337211 -1.421262 -52.068299 2.199421 12.421970 -1.435305 -25.986452 18.252005 -7.493462 1.756501 3.680483 31.262929 0.508281 -0.958676 45.316266 10.200899 12.710433 -14.532971 26.817880 -12.586702 5.575510 1.285524 -2.236903 
1.069025 0.289644 0.964892 85.117085 -2.370359 84.054419 -3.369072 -5.840434 -15.524616 -4.741167 -4.151407 22.229745 9.545940 13.236446 -6.317284 0.000000 -0.000000 0.000000 -3.659161 -2.531353 5.637600 3.983010 8.191507 50.644039 5.846724 -6.022357 15.044206 0.000000 -0.000000 0.000000 -0.027646 5.896137 9.889176 1.222255 1.469888 -0.394025 -1.334571 1.676865 2.353052 3.058463 0.523127 -6.041282 -4.556999 0.651524 10.807751 -32.017190 6.341544 -0.819339 -51.388007 1.271880 11.867489 -0.913756 -26.672097 17.391566 -8.168708 1.703763 3.338750 31.656809 0.111982 -0.729334 46.040837 9.863804 13.402267 -14.875077 25.870827 -13.664987 6.170111 1.256747 -2.487140 
1.110291 0.293580 0.968014 85.928623 -2.477244 83.673296 -4.732901 -5.823039 -12.779019 -4.616594 -5.119030 22.875870 10.610018 14.573606 -9.125263 0.000000 -0.000000 0.000000 -3.179744 -1.703590 0.211025 3.444512 5.323234 58.539285 3.000848 -10.464923 19.481367 0.000000 -0.000000 0.000000 -0.767649 4.352939 9.992533 1.525013 1.793182 -0.479903 -1.131747 1.253368 2.860053 3.046038 0.343802 -6.322715 -4.809330 1.400698 10.828203 -31.709682 5.953999 -0.527696 -50.786775 -0.107605 11.507732 -0.438815 -27.067973 16.839226 -8.061742 1.358610 2.073424 32.340138 0.080104 -0.787890 46.446731 9.202079 14.502786 -15.105234 25.427403 -13.672992 6.228630 1.130023 -2.661948 
